# File created by Blade
# Date/Time:  Wed Jan 21 19:14:05 2015
#---------------------------------------------------------
:version 1.10
:name HOM
:units
  mass 1.0
  length 1.000000
  angle deg
:documentation
     Acclaim Skeleton File
:root
   axis xyz
   order TX TY TZ RX RY RZ
   position 0.000000 0.000000 0.000000
   orientation 0 0 0
:bonedata
   begin
      id 1
      name RightUpLeg_dum
      direction -1.000000 0.000000 0.000000
      length 3.693983
      axis 0.0 0.0 0.0 xyz
   end
   begin
      id 2
      name LeftUpLeg_dum
      direction 1.000000 0.000000 0.000000
      length 3.693983
      axis 0.0 0.0 0.0 xyz
   end
   begin
      id 3
      name Spine_dum
      direction 0.000000 1.000000 0.000000
      length 2.392956
      axis 0.0 0.0 0.0 xyz
   end
   begin
      id 4
      name RightUpLeg
      direction 0.000000 -1.000000 0.000000
      length 15.795667
      axis 0.0 0.0 0.0 xyz
      dof rx ry rz
   end
   begin
      id 5
      name RightLeg
      direction 0.000000 -1.000000 0.000000
      length 14.766989
      axis 0.0 0.0 0.0 xyz
      dof rx ry rz
   end
   begin
      id 6
      name RightFoot
      direction 0.000000 -0.258819 0.965926
      length 4.962790
      axis 15.0 0.0 0.0 xyz
      dof rx ry rz
   end
   begin
      id 7
      name RightToeBase
      direction 0.000000 0.000000 1.000000
      length 2.952750
      axis 0.0 0.0 0.0 xyz
      dof rx ry rz
   end
   begin
      id 8
      name LeftUpLeg
      direction 0.000000 -1.000000 0.000000
      length 15.795667
      axis 0.0 0.0 0.0 xyz
      dof rx ry rz
   end
   begin
      id 9
      name LeftLeg
      direction 0.000000 -1.000000 0.000000
      length 14.766989
      axis 0.0 0.0 0.0 xyz
      dof rx ry rz
   end
   begin
      id 10
      name LeftFoot
      direction 0.000000 -0.258819 0.965926
      length 4.962790
      axis 15.0 0.0 0.0 xyz
      dof rx ry rz
   end
   begin
      id 11
      name LeftToeBase
      direction 0.000000 0.000000 1.000000
      length 2.952750
      axis 0.0 0.0 0.0 xyz
      dof rx ry rz
   end
   begin
      id 12
      name Spine
      direction 0.000000 1.000000 0.000000
      length 0.000000
      axis 0.0 0.0 0.0 xyz
      dof rx ry rz
   end
   begin
      id 13
      name Spine_dum1
      direction 0.000000 1.000000 0.000000
      length 13.207411
      axis 0.0 0.0 0.0 xyz
   end
   begin
      id 14
      name Spine_dum2
      direction 0.000000 1.000000 0.000000
      length 13.207411
      axis 0.0 0.0 0.0 xyz
   end
   begin
      id 15
      name Spine_dum3
      direction 0.000000 1.000000 0.000000
      length 19.250100
      axis 0.0 0.0 0.0 xyz
   end
   begin
      id 16
      name RightShoulder
      direction -1.000000 0.000000 0.000000
      length 8.140465
      axis 0.0 0.0 90.0 xyz
      dof rx ry rz
   end
   begin
      id 17
      name RightArm
      direction -1.000000 0.000000 0.000000
      length 10.649840
      axis 0.0 0.0 90.0 xyz
      dof rx ry rz
   end
   begin
      id 18
      name RightForeArm
      direction -1.000000 0.000000 0.000000
      length 8.304624
      axis 0.0 0.0 90.0 xyz
      dof ry rz rx
   end
   begin
      id 19
      name RightHand
      direction -1.000000 0.000000 0.000000
      length 0.000000
      axis 0.0 0.0 90.0 xyz
      dof rx ry rz
   end
   begin
      id 20
      name RightHand_dum1
      direction -1.000000 0.000000 0.000000
      length 3.937000
      axis 0.0 0.0 90.0 xyz
   end
   begin
      id 21
      name RightHand_dum2
      direction 0.000000 0.000000 0.000000
      length 0.000000
      axis 0.0 0.0 90.0 xyz
   end
   begin
      id 22
      name RightHandThumb1
      direction 0.000000 0.000000 1.000000
      length 3.937000
      axis 0.0 0.0 90.0 xyz
      dof rx rz ry
   end
   begin
      id 23
      name LeftShoulder
      direction 1.000000 0.000000 0.000000
      length 8.140465
      axis 0.0 0.0 -90.0 xyz
      dof rx ry rz
   end
   begin
      id 24
      name LeftArm
      direction 1.000000 0.000000 0.000000
      length 10.649840
      axis 0.0 0.0 -90.0 xyz
      dof rx ry rz
   end
   begin
      id 25
      name LeftForeArm
      direction 1.000000 0.000000 0.000000
      length 8.304624
      axis 0.0 0.0 -90.0 xyz
      dof ry rz rx
   end
   begin
      id 26
      name LeftHand
      direction 1.000000 0.000000 0.000000
      length 0.000000
      axis 0.0 0.0 -90.0 xyz
      dof rx ry rz
   end
   begin
      id 27
      name LeftHand_dum1
      direction 1.000000 0.000000 0.000000
      length 3.937000
      axis 0.0 0.0 -90.0 xyz
   end
   begin
      id 28
      name LeftHand_dum2
      direction 0.000000 0.000000 0.000000
      length 0.000000
      axis 0.0 0.0 -90.0 xyz
   end
   begin
      id 29
      name LeftHandThumb1
      direction 0.000000 0.000000 1.000000
      length 3.937000
      axis 0.0 0.0 -90.0 xyz
      dof rx rz ry
   end
   begin
      id 30
      name Head
      direction 0.000000 1.000000 0.000000
      length 4.527550
      axis 0.0 0.0 0.0 xyz
      dof rx ry rz
   end
:hierarchy
   begin
      root RightUpLeg_dum LeftUpLeg_dum Spine_dum
      RightUpLeg_dum RightUpLeg
      LeftUpLeg_dum LeftUpLeg
      Spine_dum Spine
      RightUpLeg RightLeg
      RightLeg RightFoot
      RightFoot RightToeBase
      LeftUpLeg LeftLeg
      LeftLeg LeftFoot
      LeftFoot LeftToeBase
      Spine Spine_dum1 Spine_dum2 Spine_dum3
      Spine_dum1 RightShoulder
      Spine_dum2 LeftShoulder
      Spine_dum3 Head
      RightShoulder RightArm
      RightArm RightForeArm
      RightForeArm RightHand
      RightHand RightHand_dum1 RightHand_dum2
      RightHand_dum2 RightHandThumb1
      LeftShoulder LeftArm
      LeftArm LeftForeArm
      LeftForeArm LeftHand
      LeftHand LeftHand_dum1 LeftHand_dum2
      LeftHand_dum2 LeftHandThumb1
   end

# File created by Blade
# Date/Time:  Wed Jan 21 19:13:57 2015
# Frame Rate: 120.000 fps
#------------------------------------------------------
:FULLY-SPECIFIED
:DEGREES
399
root -5.340692 34.262703 -0.480312 26.204439 59.819821 -93.068562
RightUpLeg 8.248979 -7.117676 -28.713385
RightLeg 65.548704 -0.000000 -0.000000
RightFoot 32.493439 -22.518532 19.169120
RightToeBase 42.590163 -0.000000 -0.000000
LeftUpLeg -119.062203 28.212451 -11.190504
LeftLeg -3.816673 -0.000000 0.000000
LeftFoot -4.807387 -4.305891 3.245506
LeftToeBase 3.438182 -0.000000 -0.000000
Spine -72.644687 -2.625250 23.522069
RightShoulder -35.658993 1.533755 -32.589660
RightArm -12.735687 -35.030092 45.806377
RightForeArm -18.972768 0.000000 5.747877
RightHand 5.056176 -0.000000 23.728911
RightHandThumb1 -24.326973 -0.000000 -32.862282
LeftShoulder -20.832325 -13.615844 57.002865
LeftArm 47.346930 -31.063669 -13.030524
LeftForeArm 29.534521 0.000000 18.781625
LeftHand -25.138095 -0.000000 8.227811
LeftHandThumb1 -26.253704 0.000000 33.147579
Head -26.886549 29.129837 41.360640
400
root -5.370447 34.252614 -0.453209 26.213302 59.586490 -93.274264
RightUpLeg 8.195727 -7.051768 -28.550619
RightLeg 65.573339 -0.000000 -0.000000
RightFoot 32.431273 -22.547693 19.168258
RightToeBase 42.525098 -0.000000 -0.000000
LeftUpLeg -119.336033 28.550668 -11.149074
LeftLeg -3.732279 -0.000000 0.000000
LeftFoot -5.031391 -3.924659 3.383393
LeftToeBase 3.495455 -0.000000 -0.000000
Spine -72.637077 -2.614685 23.647375
RightShoulder -35.648027 1.624851 -32.645633
RightArm -12.778728 -35.088810 45.867007
RightForeArm -18.961727 -0.000000 5.733361
RightHand 5.071923 0.000000 23.774405
RightHandThumb1 -24.326973 -0.000000 -32.862282
LeftShoulder -20.833369 -13.611327 56.925986
LeftArm 47.285607 -31.047619 -12.997915
LeftForeArm 29.524667 -0.000000 18.721423
LeftHand -24.866884 -0.000000 8.323779
LeftHandThumb1 -26.253704 0.000000 33.147579
Head -26.869866 29.208751 41.472921
401
root -5.401567 34.244423 -0.426638 26.221334 59.344397 -93.511653
RightUpLeg 8.106551 -6.871623 -28.333638
RightLeg 65.585293 -0.000000 -0.000000
RightFoot 32.307281 -22.750573 19.414399
RightToeBase 42.452787 -0.000000 -0.000000
LeftUpLeg -119.690188 28.897964 -11.134990
LeftLeg -3.587287 -0.000000 0.000000
LeftFoot -5.279945 -3.591170 3.493198
LeftToeBase 3.685267 -0.000000 -0.000000
Spine -72.639816 -2.574703 23.765228
RightShoulder -35.588265 1.675641 -32.648881
RightArm -12.886783 -34.973870 45.882032
RightForeArm -19.112174 -0.000000 5.874172
RightHand 5.087806 -0.000000 23.769705
RightHandThumb1 -24.326973 -0.000000 -32.862282
LeftShoulder -20.824943 -13.635677 56.873840
LeftArm 47.193651 -31.019241 -13.000644
LeftForeArm 29.571984 -0.000000 18.768949
LeftHand -24.996565 0.000000 8.272567
LeftHandThumb1 -26.253704 0.000000 33.147579
Head -26.864047 29.250445 41.588088
402
root -5.434257 34.237143 -0.401587 26.291971 59.122311 -93.689418
RightUpLeg 8.045702 -6.729727 -28.154547
RightLeg 65.573034 -0.000000 -0.000000
RightFoot 32.160227 -22.895322 19.523151
RightToeBase 42.469013 -0.000000 -0.000000
LeftUpLeg -120.067343 29.216876 -11.154674
LeftLeg -3.413710 -0.000000 0.000000
LeftFoot -5.525552 -3.317600 3.517314
LeftToeBase 3.853200 -0.000000 -0.000000
Spine -72.658824 -2.567547 23.882494
RightShoulder -35.542186 1.678815 -32.617136
RightArm -12.822967 -34.990213 45.867676
RightForeArm -19.137552 0.000000 5.858994
RightHand 5.170273 -0.000000 23.809685
RightHandThumb1 -24.326973 -0.000000 -32.862282
LeftShoulder -20.840457 -13.664581 56.835472
LeftArm 47.088381 -30.922447 -12.901193
LeftForeArm 29.608935 -0.000000 18.689512
LeftHand -25.062216 -0.000000 8.372533
LeftHandThumb1 -26.253704 0.000000 33.147579
Head -26.865813 29.342990 41.684933
403
root -5.468914 34.233882 -0.375901 26.457023 58.894030 -93.797200
RightUpLeg 7.975406 -6.591459 -28.011631
RightLeg 65.556715 -0.000000 -0.000000
RightFoot 31.968437 -23.090219 19.670706
RightToeBase 42.354820 -0.000000 -0.000000
LeftUpLeg -120.431022 29.554881 -11.195205
LeftLeg -3.311572 -0.000000 0.000000
LeftFoot -5.680584 -3.060529 3.524745
LeftToeBase 3.930435 -0.000000 -0.000000
Spine -72.706587 -2.562428 23.931818
RightShoulder -35.547937 1.693362 -32.603783
RightArm -12.718315 -35.165662 45.885950
RightForeArm -19.045383 -0.000000 5.747483
RightHand 5.313882 -0.000000 23.763249
RightHandThumb1 -24.326973 -0.000000 -32.862282
LeftShoulder -20.876189 -13.704463 56.832104
LeftArm 47.047691 -30.873764 -12.938073
LeftForeArm 29.705059 -0.000000 18.654839
LeftHand -25.033221 -0.000000 8.372523
LeftHandThumb1 -26.253704 0.000000 33.147579
Head -26.909120 29.414602 41.782000
404
root -5.505023 34.232717 -0.351557 26.620021 58.718260 -93.901204
RightUpLeg 7.959351 -6.472873 -27.862711
RightLeg 65.506038 -0.000000 -0.000000
RightFoot 31.829548 -23.212529 19.714481
RightToeBase 42.311161 -0.000000 -0.000000
LeftUpLeg -120.798491 29.826038 -11.265602
LeftLeg -3.235296 -0.000000 0.000000
LeftFoot -5.754029 -2.918400 3.456003
LeftToeBase 4.001727 -0.000000 -0.000000
Spine -72.768653 -2.600625 23.999089
RightShoulder -35.481002 1.730895 -32.583906
RightArm -12.734150 -35.174399 45.902602
RightForeArm -19.137420 -0.000000 5.723604
RightHand 5.413852 -0.000000 23.668602
RightHandThumb1 -24.326973 -0.000000 -32.862282
LeftShoulder -20.912832 -13.724337 56.830259
LeftArm 47.015128 -30.771857 -12.920712
LeftForeArm 29.594130 -0.000000 18.551077
LeftHand -25.156849 -0.000000 8.522766
LeftHandThumb1 -26.253704 0.000000 33.147579
Head -26.933094 29.480012 41.873355
405
root -5.544611 34.235568 -0.330147 26.899989 58.581026 -93.929875
RightUpLeg 7.950479 -6.418333 -27.742040
RightLeg 65.420139 -0.000000 -0.000000
RightFoot 31.666841 -23.429297 19.837947
RightToeBase 42.161191 -0.000000 -0.000000
LeftUpLeg -121.243580 30.015891 -11.442046
LeftLeg -3.173612 -0.000000 0.000000
LeftFoot -5.786508 -2.937659 3.158951
LeftToeBase 4.193173 -0.000000 -0.000000
Spine -72.874347 -2.655475 23.997044
RightShoulder -35.523015 1.730083 -32.550735
RightArm -12.603213 -35.250248 45.857111
RightForeArm -19.207488 -0.000000 5.638090
RightHand 5.459320 -0.000000 23.559599
RightHandThumb1 -24.326973 -0.000000 -32.862282
LeftShoulder -20.950437 -13.789190 56.869334
LeftArm 47.003808 -30.705331 -13.050968
LeftForeArm 29.583887 0.000000 18.531707
LeftHand -25.330281 0.000000 8.655943
LeftHandThumb1 -26.253704 0.000000 33.147579
Head -27.028185 29.490794 41.947288
